PathFileType	4	(X/Y/Z)	./resultDataOpenSim/trcMotMarkerGrf/sub09/qtm-01-08.trc
DataRate	CameraRate	NumFrames	NumMarkers	Units	OrigDataRate	OrigDataStartFrame	OrigNumFrames
250.000000	250.000000	11	24	m	250.000000	118	470
Frame#	Time	L.Toe.Tip			R.Toe.Tip			L.Ankle.Lat			R.Ankle.Lat			L.Ankle.Med			R.Ankle.Med			L.Heel			R.Heel			L.Knee.Lat			R.Knee.Lat			L.Knee.Med			R.Knee.Med			L.Thigh.Upper			R.Thigh.Upper			L.ASIS			R.ASIS			V.Sacral			L.Acromium			R.Acromium			C7			L.Elbow			R.Elbow			L.Wrist.Lat			R.Wrist.Lat
		X1	Y1	Z1	X2	Y2	Z2	X3	Y3	Z3	X4	Y4	Z4	X5	Y5	Z5	X6	Y6	Z6	X7	Y7	Z7	X8	Y8	Z8	X9	Y9	Z9	X10	Y10	Z10	X11	Y11	Z11	X12	Y12	Z12	X13	Y13	Z13	X14	Y14	Z14	X15	Y15	Z15	X16	Y16	Z16	X17	Y17	Z17	X18	Y18	Z18	X19	Y19	Z19	X20	Y20	Z20	X21	Y21	Z21	X22	Y22	Z22	X23	Y23	Z23	X24	Y24	Z24

118	0.468	-0.3866917	0.072513765	-0.012923507	-0.70182678	0.039275488	0.098598744	-0.53480819	0.10391336	-0.042099191	-0.8479665	0.05651994	0.12656506	-0.5063149	0.12105793	0.050509685	-0.83648425	0.093157211	0.035248925	-0.60063119	0.062593797	0.010435757	-0.9161729	0.036945413	0.074472388	-0.48313464	0.51925071	-0.076116551	-0.71850349	0.49526135	0.1917864	-0.48475868	0.51471616	0.049021813	-0.73255192	0.48794828	0.063659758	-0.66630792	0.89730177	-0.1218274	-0.71219612	0.9022186	0.24788237	-0.60015169	0.9830233	-0.054945577	-0.60474254	0.98518244	0.18432916	-0.76919698	1.0411361	0.056393177	-0.60038556	1.4341587	-0.10729841	-0.61922755	1.4462209	0.22083502	-0.67548146	1.490498	0.055459958	-0.76698789	1.1072965	-0.16712025	-0.74434338	1.1018195	0.32153536	-0.64649863	0.872629	-0.20158816	-0.55548585	0.89856583	0.30858044
119	0.472	-0.36657192	0.074083836	-0.012090279	-0.70182803	0.039219129	0.098663735	-0.51557541	0.10145743	-0.041427822	-0.84802622	0.056646095	0.12639714	-0.48759319	0.11964167	0.051190042	-0.83627023	0.09328456	0.035155737	-0.58018322	0.058610931	0.010987068	-0.91614538	0.037194727	0.074178511	-0.47649431	0.51834995	-0.076156066	-0.71680784	0.49503706	0.19188866	-0.47762622	0.51396332	0.049132557	-0.73073602	0.48780833	0.063698785	-0.66001172	0.8964209	-0.12176904	-0.70644779	0.90168132	0.24797555	-0.59375025	0.98213445	-0.054836163	-0.59854824	0.98434868	0.18453037	-0.76294407	1.0403221	0.056739293	-0.59461366	1.433412	-0.1072325	-0.61314736	1.4455083	0.22094203	-0.66939774	1.4896584	0.055526515	-0.76171118	1.1068914	-0.16700826	-0.73758929	1.1009353	0.322035	-0.64184897	0.87194322	-0.2020502	-0.54806435	0.89835605	0.30831799
120	0.476	-0.34656703	0.075903362	-0.011232593	-0.70182168	0.039165164	0.098717611	-0.49639453	0.099262702	-0.040810568	-0.84808489	0.056801208	0.12618188	-0.46897545	0.11846008	0.051860098	-0.83602173	0.093421939	0.035035933	-0.55975106	0.05491344	0.011598306	-0.91610774	0.037470376	0.073846506	-0.46994554	0.51730871	-0.076227401	-0.71502055	0.49481331	0.19202191	-0.4703484	0.51315621	0.049333194	-0.72890093	0.48765534	0.063720261	-0.65363949	0.89544679	-0.12170354	-0.70067667	0.90110385	0.24806043	-0.58733136	0.98115241	-0.054731203	-0.5923285	0.98345354	0.18471673	-0.75670755	1.0394186	0.057107208	-0.58883675	1.4325961	-0.10719341	-0.60705092	1.4447194	0.22104128	-0.66345213	1.4887463	0.05563644	-0.75641564	1.1064044	-0.16694387	-0.73082753	1.0999724	0.3225186	-0.63711862	0.87119639	-0.20252031	-0.54065265	0.89805285	0.30805454
121	0.48	-0.32669387	0.077963419	-0.010326839	-0.70180905	0.039108122	0.098763514	-0.47725037	0.097346561	-0.040232117	-0.84813129	0.056996969	0.12592338	-0.45051558	0.11753779	0.052562324	-0.83573128	0.093569627	0.034879108	-0.53931834	0.051522631	0.012212806	-0.9160628	0.037791773	0.073479171	-0.46349788	0.51613864	-0.076357569	-0.7132004	0.4945839	0.19218352	-0.46310198	0.51223684	0.049524171	-0.727017	0.48748239	0.063773506	-0.64714142	0.8943909	-0.12164311	-0.69487121	0.90047473	0.24813342	-0.58089868	0.98008136	-0.054627641	-0.58607351	0.98250402	0.18489314	-0.75044118	1.0384185	0.057418921	-0.58306967	1.4317248	-0.10718181	-0.60091421	1.4438604	0.22112455	-0.65759142	1.4877728	0.055773832	-0.75110329	1.1058304	-0.16693002	-0.72405298	1.0989293	0.32298522	-0.63236883	0.87039639	-0.20301298	-0.53324777	0.89765592	0.30779095
122	0.484	-0.30697471	0.080258398	-0.0093419422	-0.70179346	0.039036766	0.098811709	-0.45812256	0.095718737	-0.039681241	-0.84814419	0.057251674	0.12563767	-0.43225739	0.1169117	0.053340866	-0.83539193	0.093726763	0.034675313	-0.51893007	0.048489799	0.012747261	-0.91601292	0.038162143	0.073080916	-0.457142	0.51485653	-0.076558818	-0.71137548	0.49432903	0.19234826	-0.45611994	0.51113808	0.049581716	-0.72504395	0.48728127	0.063866101	-0.64055283	0.89324247	-0.12157436	-0.68902266	0.89978968	0.24819374	-0.57444621	0.97892165	-0.054522944	-0.57978886	0.98150323	0.1850646	-0.74406035	1.0373176	0.057550709	-0.57731414	1.4308079	-0.10718867	-0.59472529	1.442926	0.22119032	-0.65172895	1.486736	0.055907721	-0.74576001	1.1051714	-0.16693619	-0.71726272	1.0978067	0.3234349	-0.62762728	0.86953779	-0.20352588	-0.52585762	0.89716277	0.30752864
123	0.488	-0.28744196	0.082785585	-0.0082482776	-0.70177531	0.038948138	0.098879365	-0.43903477	0.094389481	-0.039150334	-0.848104	0.057577163	0.12534795	-0.41419851	0.11659896	0.05418468	-0.83500773	0.093894702	0.034428619	-0.49863528	0.045837232	0.013195635	-0.91595559	0.038567343	0.072647913	-0.45085294	0.51347385	-0.076817922	-0.70952755	0.49403945	0.19250306	-0.44949958	0.50984302	0.049473804	-0.72296483	0.48704311	0.063974862	-0.63399239	0.89197853	-0.12147749	-0.68313184	0.89905409	0.24823965	-0.56795907	0.97767299	-0.054414773	-0.57349586	0.98044938	0.18523626	-0.73746359	1.0361015	0.057354716	-0.57155238	1.4298369	-0.10720005	-0.58850231	1.4419126	0.22124732	-0.64581557	1.4856388	0.05602481	-0.74036225	1.1044285	-0.16692247	-0.71046308	1.0966091	0.32387433	-0.62284959	0.86861381	-0.20403537	-0.51848561	0.89657463	0.30726666
124	0.492	-0.26814092	0.085538112	-0.0070330859	-0.70175041	0.038858138	0.098976385	-0.42005997	0.093374002	-0.038631511	-0.84802179	0.057950103	0.12506243	-0.39630064	0.11657337	0.055007275	-0.83459379	0.094080853	0.03416113	-0.47848146	0.043560012	0.013585868	-0.91588316	0.038993424	0.072169182	-0.44460871	0.51198637	-0.07711007	-0.70759952	0.49373239	0.19265778	-0.4431751	0.50837902	0.049273208	-0.72077962	0.48676647	0.064082059	-0.62756465	0.89059057	-0.12134916	-0.67720437	0.89827174	0.2482689	-0.56142666	0.9763425	-0.054299236	-0.56720529	0.97933981	0.18541196	-0.73062331	1.0347609	0.056791907	-0.56576488	1.4287917	-0.1072082	-0.58228393	1.4408252	0.22131035	-0.63984646	1.4844858	0.056127729	-0.73490055	1.1036026	-0.16687453	-0.70365524	1.0953384	0.32430708	-0.61798804	0.86761567	-0.20451596	-0.51113612	0.89589584	0.30700247
125	0.496	-0.24912273	0.088502908	-0.0057159344	-0.70171301	0.038791638	0.099086819	-0.40128574	0.092679017	-0.038125868	-0.84793719	0.058323899	0.12476015	-0.3785366	0.11679541	0.05571519	-0.83415836	0.094301266	0.033894548	-0.45851883	0.041643948	0.01394152	-0.91578708	0.039438293	0.071635187	-0.43839033	0.5103881	-0.077413308	-0.70553098	0.49343148	0.19282947	-0.43704365	0.50677043	0.049071188	-0.71849364	0.48646381	0.064187447	-0.62127958	0.88909179	-0.12119914	-0.67124056	0.89744811	0.24828626	-0.55485745	0.97494703	-0.054173078	-0.56091033	0.97817499	0.18558807	-0.72368189	1.0333293	0.056095531	-0.55994675	1.4276647	-0.10721584	-0.57609705	1.4396684	0.22138743	-0.63383763	1.4832741	0.056219705	-0.72939411	1.1026995	-0.16679257	-0.69682964	1.093993	0.32473015	-0.61304766	0.86653116	-0.20496328	-0.50382796	0.89512787	0.30673616
126	0.5	-0.23043102	0.091665708	-0.0043467863	-0.70166568	0.038757028	0.09917095	-0.38277661	0.092291916	-0.037648422	-0.84787856	0.05867303	0.12441	-0.36091792	0.11725557	0.056283574	-0.83368735	0.094578261	0.033629158	-0.43879492	0.040069754	0.014272914	-0.91566495	0.039902864	0.071040306	-0.43216364	0.50869494	-0.077700744	-0.70330961	0.49313392	0.19302762	-0.43103412	0.50502045	0.048924224	-0.71610462	0.48614557	0.064302166	-0.61507683	0.88750026	-0.12102943	-0.66522444	0.89659367	0.24830594	-0.54827443	0.97350181	-0.054037608	-0.55460603	0.97695597	0.18575518	-0.71686324	1.0318616	0.055632204	-0.55410345	1.4264625	-0.10722456	-0.56992259	1.4384384	0.22147165	-0.62780619	1.4819977	0.056300831	-0.72387618	1.1017253	-0.16665887	-0.68998154	1.0925741	0.32514206	-0.60806235	0.86535649	-0.20539885	-0.49656742	0.89427214	0.30647335
127	0.504	-0.21209417	0.095015415	-0.0029707019	-0.70162028	0.038739268	0.099198845	-0.3645569	0.092193854	-0.037215726	-0.84784233	0.058998643	0.12400115	-0.34350348	0.11795681	0.056754416	-0.8331563	0.094928978	0.033348747	-0.41935188	0.038811497	0.01457002	-0.91553007	0.040381688	0.070390816	-0.42585704	0.50692903	-0.077902284	-0.70096127	0.49281909	0.19325004	-0.42507627	0.50312697	0.048862243	-0.71358417	0.48580757	0.06444444	-0.60887464	0.885828	-0.12084605	-0.65913613	0.89571077	0.2483354	-0.54169394	0.97201096	-0.053897552	-0.5482861	0.97568329	0.18590548	-0.7102719	1.0303704	0.055563848	-0.54824118	1.4251932	-0.10723185	-0.56370988	1.4371316	0.2215497	-0.62176133	1.4806622	0.056374196	-0.71834677	1.1006743	-0.16645463	-0.68311785	1.0910843	0.3255434	-0.60305594	0.86410221	-0.20584952	-0.48933453	0.89333282	0.30621867
128	0.508	-0.19413839	0.098542504	-0.001597675	-0.70157924	0.038719759	0.099184578	-0.34661881	0.092376433	-0.036831793	-0.84780809	0.059311657	0.12354858	-0.32639628	0.11887144	0.057179715	-0.83255685	0.095351221	0.033040845	-0.40023011	0.037838759	0.014800935	-0.91541805	0.040865489	0.069722247	-0.41938733	0.50508917	-0.077923318	-0.69849193	0.49247886	0.19348934	-0.4190612	0.50110462	0.048910316	-0.71089435	0.48544115	0.064632132	-0.60259184	0.8840858	-0.12067148	-0.65298999	0.89478532	0.24835687	-0.53511515	0.97047192	-0.05375498	-0.54193496	0.97436392	0.18604013	-0.70385433	1.0288313	0.055797654	-0.54236369	1.4238635	-0.10724463	-0.55743606	1.4357555	0.22161588	-0.61570008	1.4792832	0.056444313	-0.7127301	1.0995241	-0.16622432	-0.67624554	1.0895255	0.32593055	-0.59803525	0.86278171	-0.20632309	-0.4821255	0.89230905	0.30596937
